<?xml version="1.0" encoding="UTF-8"?>
<svg xmlns="http://www.w3.org/2000/svg" xmlns:xlink="http://www.w3.org/1999/xlink" width="247pt" height="246pt" viewBox="0 0 247 246" version="1.1">
<g id="surface1">
<path style=" stroke:none;fill-rule:evenodd;fill:rgb(13.699341%,12.199402%,12.5%);fill-opacity:1;" d="M 123.566406 0.863281 C 191.515625 0.863281 246.617188 55.53125 246.617188 122.941406 C 246.617188 190.351563 191.515625 245.019531 123.566406 245.019531 C 55.621094 245.019531 0.519531 190.351563 0.519531 122.941406 C 0.519531 55.53125 55.621094 0.863281 123.566406 0.863281 Z M 176.476563 209.261719 C 161.191406 218.457031 143.015625 223.875 123.566406 223.875 C 104.480469 223.875 86.621094 218.65625 71.417969 209.683594 L 108.402344 69.261719 C 111.296875 58.042969 115.628906 48.664063 123.015625 48.671875 C 130.402344 48.675781 135.046875 57.960938 137.941406 69.179688 Z M 201.351563 187.863281 C 216.304688 170.394531 225.300781 147.707031 225.300781 122.941406 C 225.300781 67.210938 179.742188 22.011719 123.566406 22.011719 C 67.390625 22.011719 21.835938 67.210938 21.835938 122.941406 C 21.835938 147.601563 30.753906 170.195313 45.53125 187.730469 L 94.238281 56.792969 C 99.46875 41.519531 106.152344 28.109375 122.6875 27.703125 C 139.21875 28.027344 146.632813 41.4375 151.859375 56.710938 L 201.351563 187.863281 "/>
<path style="fill:none;stroke-width:5.6693;stroke-linecap:butt;stroke-linejoin:miter;stroke:rgb(13.699341%,12.199402%,12.5%);stroke-opacity:1;stroke-miterlimit:22.9256;" d="M 1235.664063 2451.367188 C 1915.15625 2451.367188 2466.171875 1904.6875 2466.171875 1230.585938 C 2466.171875 556.484375 1915.15625 9.804688 1235.664063 9.804688 C 556.210938 9.804688 5.195313 556.484375 5.195313 1230.585938 C 5.195313 1904.6875 556.210938 2451.367188 1235.664063 2451.367188 Z M 1764.765625 367.382813 C 1611.914063 275.429688 1430.15625 221.25 1235.664063 221.25 C 1044.804688 221.25 866.210938 273.4375 714.179688 363.164063 L 1084.023438 1767.382813 C 1112.96875 1879.570313 1156.289063 1973.359375 1230.15625 1973.28125 C 1304.023438 1973.242188 1350.46875 1880.390625 1379.414063 1768.203125 Z M 2013.515625 581.367188 C 2163.046875 756.054688 2253.007813 982.929688 2253.007813 1230.585938 C 2253.007813 1787.890625 1797.421875 2239.882813 1235.664063 2239.882813 C 673.90625 2239.882813 218.359375 1787.890625 218.359375 1230.585938 C 218.359375 983.984375 307.539063 758.046875 455.3125 582.695313 L 942.382813 1892.070313 C 994.6875 2044.804688 1061.523438 2178.90625 1226.875 2182.96875 C 1392.1875 2179.726563 1466.328125 2045.625 1518.59375 1892.890625 Z M 2013.515625 581.367188 " transform="matrix(0.1,0,0,-0.1,0,246)"/>
</g>
</svg>
